<svg width="1440" height="1024" viewBox="0 0 1440 1024" fill="none" xmlns="http://www.w3.org/2000/svg">
<rect width="1440" height="1024" fill="#F5F5F5"/>
<rect width="1440" height="1024" fill="#F6F1DE"/>
<path d="M997.634 1012.04V1009.8" stroke="black" stroke-width="3" stroke-linecap="round"/>
<path d="M147.082 424.061C147.786 429.698 157.708 428.55 161.669 428.55C164.798 428.55 167.28 425.658 167.28 429.921C167.28 439.106 167.28 448.29 167.28 457.475C167.28 464.58 167.31 482.621 172.267 467.2C174.897 459.018 174.362 452.041 171.768 444.259" stroke="black" stroke-width="3" stroke-linecap="round"/>
<path d="M619 529.488C627.192 530.399 626.484 539.047 636.954 538.465C640.537 538.266 649.458 527.882 650.419 525" stroke="black" stroke-width="3" stroke-linecap="round"/>
<path d="M665.492 219.839C676.037 221.011 679.979 236.207 686.812 242.281C694.641 249.24 701.404 246.767 710.377 242.281" stroke="black" stroke-width="3" stroke-linecap="round"/>
<path d="M1040 403C1043.97 407.958 1051.96 433.315 1060.2 420.954" stroke="black" stroke-width="3" stroke-linecap="round"/>
<path d="M1072 543C1072.58 548.236 1075.89 555.817 1080.98 558.211C1082.57 558.959 1088.57 551.977 1092.2 551.977" stroke="black" stroke-width="3" stroke-linecap="round"/>
<path d="M115.663 210.862C106.608 211.868 87.9211 221.677 102.198 228.816" stroke="black" stroke-width="3" stroke-linecap="round"/>
<path d="M1320.8 215.351C1334.26 215.351 1347.73 215.351 1361.2 215.351C1370.41 215.351 1364.44 228.984 1361.2 233.304" stroke="black" stroke-width="3" stroke-linecap="round"/>
<path d="M737 561C740.356 572.372 745.516 615.812 761.686 614.861C767.293 614.531 772.907 601.638 772.907 596.907" stroke="black" stroke-width="3" stroke-linecap="round"/>
<path d="M470 675C476.821 675.758 475.157 686.324 479.476 690.211C485.967 696.053 490.198 678.262 490.198 675" stroke="black" stroke-width="3" stroke-linecap="round"/>
<path d="M277.246 722.54C277.246 726.613 277.246 730.686 277.246 734.759C277.246 740.152 281.149 736.005 284.976 736.005C293.862 736.005 295.533 722.54 304.176 722.54" stroke="black" stroke-width="3" stroke-linecap="round"/>
<path d="M1229 809C1244.47 810.406 1255.73 830.346 1269.4 837.177C1284.57 844.765 1290.42 834.689 1298.57 822.465" stroke="black" stroke-width="3" stroke-linecap="round"/>
<path d="M998 761C1000.58 784.229 1038.2 769.977 1049.62 769.977" stroke="black" stroke-width="3" stroke-linecap="round"/>
<path d="M665 857.488C665 864.803 665.961 882.335 677.343 879.806C681.21 878.946 684.386 873.823 686.445 870.829C693.32 860.829 701.106 857.239 712.128 853" stroke="black" stroke-width="3" stroke-linecap="round"/>
<path d="M185.233 924.518C181.867 924.518 178.501 924.518 175.134 924.518C170.079 924.518 173.296 920.171 169.524 918.285C164.71 915.878 163.947 910.328 158.303 906.565" stroke="black" stroke-width="3" stroke-linecap="round"/>
<path d="M111.175 670.924C97.9596 682.67 93.0531 662.985 90.9768 661.947" stroke="black" stroke-width="3" stroke-linecap="round"/>
<path d="M1338.75 538.516C1337.11 545.087 1327.77 542.314 1324.17 539.513C1320.56 536.706 1316.28 524.979 1314.07 520.562" stroke="black" stroke-width="3" stroke-linecap="round"/>
<path d="M1365.68 955.937C1365.68 946.938 1361.02 954.627 1361.2 960.426C1361.34 965.247 1365.68 972.347 1365.68 962.67" stroke="black" stroke-width="3" stroke-linecap="round"/>
<path d="M997.634 1012.04V1009.8" stroke="black" stroke-width="3" stroke-linecap="round"/>
<path d="M889.913 951.449V960.426" stroke="black" stroke-width="3" stroke-linecap="round"/>
<path d="M898.89 646.237V643.993" stroke="black" stroke-width="3" stroke-linecap="round"/>
<path d="M494.933 951.449C491.154 951.449 489.735 949.205 485.956 949.205" stroke="black" stroke-width="3" stroke-linecap="round"/>
</svg>
